# xmcd CD database file
#
# Track frame offsets:
#	150
#	14983
#	35590
#	57488
#	70102
#	87635
#	105191
#	123360
#	133268
#	153783
#	171604
#	190740
#	199680
#	216842
#
# Disc length: 3131 seconds
#
# Revision: 0
# Processed by: cddbd v1.5.1PL2 Copyright (c) Steve Scherf et al.
# Submitted via: CDex 1.51
#
DISCID=cf0c390e
DTITLE=Red Norvo Quintet - With Guest Vocalists
DYEAR=1962
DGENRE=Jazz
TTITLE0=Spider's Web
TTITLE1=What Is This Thing Called Love?
TTITLE2=Don't Get Around Much Anymore
TTITLE3=About a Quarter to Nine
TTITLE4=Lena and Lenny
TTITLE5=Undecided
TTITLE6=Rhee, O, Rhee
TTITLE7=One Minute to One
TTITLE8=Perdido
TTITLE9=Lena and Lenny [alternate take]
TTITLE10=What Is This Thing Called Love? [alternate take]
TTITLE11=That Old Black Magic
TTITLE12=Don't Get Around Much Anymore [alternate take]
TTITLE13=Rhee, O, Rhee [alternate take]
EXTD=YEAR: 1962
EXTT0=
EXTT1=
EXTT2=
EXTT3=
EXTT4=
EXTT5=
EXTT6=
EXTT7=
EXTT8=
EXTT9=
EXTT10=
EXTT11=
EXTT12=
EXTT13=
PLAYORDER=
